<svg width="24" height="18" viewBox="0 0 24 18" fill="none" xmlns="http://www.w3.org/2000/svg">
<g id="egyflag">
<path id="Vector" d="M-3.62396e-05 15.0287C-3.62396e-05 15.7115 0.271179 16.3662 0.753944 16.849C1.23671 17.3318 1.89148 17.603 2.57421 17.603H20.594C21.2767 17.603 21.9315 17.3318 22.4142 16.849C22.897 16.3662 23.1682 15.7115 23.1682 15.0287V3.44461C23.1682 2.76188 22.897 2.10711 22.4142 1.62434C21.9315 1.14158 21.2767 0.870361 20.594 0.870361H2.57421C1.89148 0.870361 1.23671 1.14158 0.753944 1.62434C0.271179 2.10711 -3.62396e-05 2.76188 -3.62396e-05 3.44461V15.0287Z" fill="#141414"/>
<path id="Vector_2" d="M23.1682 6.0188H-3.62396e-05V12.4544H23.1682V6.0188Z" fill="#EEEEEE"/>
<path id="Vector_3" d="M2.57421 0.870361H20.594C21.2767 0.870361 21.9315 1.14158 22.4142 1.62434C22.897 2.10711 23.1682 2.76188 23.1682 3.44461V6.01886H-3.62396e-05V3.44461C-3.62396e-05 2.76188 0.271179 2.10711 0.753944 1.62434C1.23671 1.14158 1.89148 0.870361 2.57421 0.870361Z" fill="#CE1225"/>
<path id="Vector_4" d="M13.6758 11.529C13.6758 11.529 13.6655 11.6899 13.5252 11.7704C13.5252 11.7704 13.5651 11.8914 13.4145 11.9615C13.2639 12.0317 12.7207 12.1423 11.7753 12.1423C10.8299 12.1423 10.2971 12.0419 10.1561 11.9712C10.0152 11.901 10.0055 11.7401 10.0055 11.7401C10.0055 11.7401 9.85495 11.6597 9.8646 11.5593C9.8749 11.4589 10.0757 11.3482 10.0757 11.3482C10.0757 11.3482 10.1259 11.2175 10.2668 11.1673C10.4078 11.1172 10.8602 11.3887 11.7251 11.3482C12.5901 11.3083 13.0824 11.177 13.2433 11.1873C13.4042 11.1976 13.4743 11.3585 13.4743 11.3585C13.4743 11.3585 13.6558 11.4389 13.6758 11.529Z" fill="#BF9300"/>
<path id="Vector_5" d="M13.565 11.5193C13.5734 11.5792 13.4441 11.7105 13.4441 11.7105C13.4441 11.7105 13.4441 11.8611 13.3134 11.9016C13.1828 11.9422 12.6499 12.0425 11.7849 12.0323C10.92 12.022 10.3067 11.9718 10.2365 11.9113C10.1664 11.8508 10.1059 11.7201 10.1059 11.7201C10.1059 11.7201 9.96495 11.6197 9.97525 11.5393C9.98555 11.4588 10.1863 11.4086 10.1863 11.4086C10.1863 11.4086 10.243 11.2876 10.3099 11.2375C10.3768 11.1873 10.8093 11.4382 11.7347 11.4382C12.6402 11.4382 13.1628 11.2169 13.2529 11.2272C13.3437 11.2375 13.4035 11.408 13.4035 11.408C13.4035 11.408 13.5547 11.4492 13.565 11.5193Z" fill="#EEEEEE"/>
<path id="Vector_6" d="M9.74427 7.61749C9.74427 7.61749 9.76422 7.14512 10.1967 7.20497C10.6292 7.26547 10.6594 7.47655 11.1221 7.52675L11.2174 7.53576C11.2946 7.32653 11.3372 7.10612 11.3435 6.88319C11.3435 6.58136 11.2528 6.45072 11.5649 6.30012C11.8764 6.14953 11.9369 6.28982 11.9369 6.28982C11.9369 6.28982 12.1782 6.16883 12.2889 6.25958C12.3996 6.35032 12.3391 6.58136 12.2889 6.51121C12.2387 6.44106 12.0373 6.64185 12.0373 6.64185C11.9691 6.97586 12.1628 7.33754 12.2954 7.53898C12.341 7.53447 12.3777 7.53254 12.4292 7.52675C12.8919 7.47655 12.9222 7.26547 13.3547 7.20497C13.7871 7.14448 13.8071 7.61749 13.8071 7.61749L13.9783 11.2678L13.6262 10.9962L13.6243 10.9531L12.8919 10.3024L12.7697 10.1802L13.0728 11.0663C13.0728 11.0663 13.5355 11.0361 13.4049 11.4081C13.4049 11.4081 13.3347 11.197 13.2137 11.2369C13.0927 11.2768 12.7413 11.3675 12.7413 11.3675L12.6204 11.5587L12.4698 11.4177L11.9974 11.3978C11.9974 11.3978 11.8468 11.4377 11.8564 11.569C11.8288 11.5125 11.8204 11.4485 11.8326 11.3868L11.6904 11.3772C11.7057 11.4419 11.6979 11.51 11.6685 11.5696C11.6788 11.439 11.5276 11.3984 11.5276 11.3984L11.0552 11.4184L10.904 11.5593L10.783 11.3682C10.783 11.3682 10.4316 11.2774 10.3113 11.2375C10.1909 11.1976 10.1201 11.4087 10.1201 11.4087C9.98947 11.0367 10.4522 11.067 10.4522 11.067L10.7412 10.222L10.6601 10.3031L9.92769 10.9537L9.92576 10.9968L9.57373 11.2684L9.74427 7.61749ZM11.7438 9.83006C12.4691 9.38214 12.529 8.2514 12.529 8.2514C12.529 8.2514 12.0804 8.22823 11.7548 7.99977C11.4613 8.26041 10.9606 8.23081 10.9606 8.23081C10.9606 8.23081 10.9947 9.36605 11.7438 9.83006ZM10.086 7.4772L10.6993 8.06027L10.8023 8.10145C10.9078 8.10531 11.4214 8.1066 11.7451 7.81893C12.1473 8.10081 12.7002 8.12076 12.7002 8.12076L12.7858 8.08665L13.4647 7.4772L13.643 7.55056C13.6353 7.47784 13.5954 7.31438 13.374 7.34655C13.011 7.39868 12.861 7.59819 12.4788 7.63809L12.3707 7.64903L12.4086 7.69794C12.3494 7.69794 12.2619 7.68056 12.1975 7.66641L12.1248 7.67348L12.1576 7.78804C12.1061 7.77259 12.0315 7.72819 11.9704 7.68893L11.803 7.70502L11.7651 7.75779L11.6376 7.69408L11.552 7.68571C11.478 7.72883 11.3725 7.76744 11.3725 7.76744L11.3525 7.66705C11.2618 7.72754 11.1112 7.72754 11.1112 7.72754C11.1286 7.71338 11.146 7.67735 11.164 7.64645L11.0713 7.6368C10.689 7.5969 10.5397 7.3974 10.1761 7.34527C9.95472 7.31373 9.91482 7.47655 9.90709 7.54928L10.086 7.4772Z" fill="#BF9300"/>
<path id="Vector_7" d="M11.9866 9.81004L12.3489 11.1873L12.9519 11.0669L12.3283 9.29712L11.9866 9.81004ZM11.5367 9.81004L11.175 11.1873L10.5714 11.0669L11.195 9.29712L11.5367 9.81004Z" fill="#EEEEEE"/>
<path id="Vector_8" d="M12.3784 8.36209C12.3784 8.36209 12.3282 8.94516 12.0669 9.39758V8.23145C12.0669 8.23145 12.2381 8.33184 12.3784 8.36209ZM11.1215 8.38204C11.1215 8.38204 11.1717 8.96511 11.433 9.41753V8.2514C11.4337 8.2514 11.2625 8.35179 11.1215 8.38204Z" fill="#BF9300"/>
<path id="Vector_9" d="M12.2581 6.39083C12.2581 6.39083 12.1879 6.32068 11.9865 6.46098C11.8558 6.55236 11.74 6.62187 11.74 6.62187C11.74 6.62187 11.6576 6.53499 11.5366 6.55494C11.4156 6.57489 11.4832 6.74286 11.4633 7.09424C11.4433 7.44627 11.3024 7.59686 11.3024 7.59686L11.4736 7.49647L11.4633 7.60716L11.6544 7.51642L11.7451 7.64706L11.8359 7.50612L11.9826 7.59558L12.027 7.47587L12.1982 7.56662C12.1982 7.56662 11.9466 7.25513 11.9266 6.91276C11.9208 6.81043 11.9466 6.58068 11.9466 6.58068C11.9466 6.58068 12.1068 6.38053 12.2581 6.39083Z" fill="#EEEEEE"/>
<path id="Vector_10" d="M13.1629 11.5893C13.2781 11.6582 13.233 11.7 13.1629 11.7303C13.0927 11.7605 12.6706 11.8114 11.8153 11.8307C10.9407 11.8506 10.3975 11.7502 10.3274 11.7097C10.2572 11.6698 10.2469 11.599 10.3673 11.579C10.4882 11.5591 11.0913 11.6595 11.8256 11.6595C12.7304 11.6601 13.1127 11.5591 13.1629 11.5893Z" fill="#BF9300"/>
</g>
</svg>
