<svg width="23" height="23" viewBox="0 0 23 23" fill="none" xmlns="http://www.w3.org/2000/svg">
<g id="SVG3 1">
<path id="Vector" opacity="0.5" d="M18.8132 18.8956C19.1684 19.2508 19.7485 19.2535 20.0736 18.8701C21.7459 16.899 22.6621 14.3971 22.6582 11.8122C22.6582 5.77707 17.765 0.883911 11.7299 0.883911C5.69468 0.883911 0.801514 5.77707 0.801514 11.8122C0.801514 14.5024 1.77323 16.9659 3.38607 18.8701C3.71118 19.2535 4.29039 19.2517 4.64647 18.8956C5.00164 18.5405 4.998 17.9667 4.67925 17.5769C3.34655 15.9517 2.61969 13.914 2.6229 11.8122C2.6229 6.78248 6.70008 2.7053 11.7299 2.7053C16.7596 2.7053 20.8368 6.78248 20.8368 11.8122C20.84 13.914 20.1131 15.9517 18.7804 17.5769C18.4617 17.9658 18.4581 18.5405 18.8132 18.8956Z" fill="white"/>
<path id="Vector_2" d="M6.26562 21.279V20.9193C6.26562 19.4701 6.84131 18.0803 7.86604 17.0556C8.89077 16.0308 10.2806 15.4551 11.7298 15.4551C13.179 15.4551 14.5688 16.0308 15.5935 17.0556C16.6183 18.0803 17.194 19.4701 17.194 20.9193V21.279C15.5333 22.2396 13.6482 22.7438 11.7298 22.7407C9.73901 22.7407 7.873 22.2089 6.26562 21.279ZM14.4619 10.4463C14.4619 8.68595 14.0065 7.2589 11.7298 7.2589C9.45306 7.2589 8.99771 8.68595 8.99771 10.4463C8.99771 12.2067 10.2208 13.6338 11.7298 13.6338C13.2388 13.6338 14.4619 12.2067 14.4619 10.4463Z" fill="white"/>
</g>
</svg>
