<svg width="19" height="18" viewBox="0 0 19 18" fill="none" xmlns="http://www.w3.org/2000/svg">
<g id="SVG2 1">
<path id="Vector" opacity="0.5" d="M0.623047 7.90172C0.623047 7.66019 0.718995 7.42855 0.889783 7.25776C1.06057 7.08698 1.29221 6.99103 1.53374 6.99103H17.9262C18.1678 6.99103 18.3994 7.08698 18.5702 7.25776C18.741 7.42855 18.8369 7.66019 18.8369 7.90172V9.72311C18.8369 9.96464 18.741 10.1963 18.5702 10.3671C18.3994 10.5379 18.1678 10.6338 17.9262 10.6338H1.53374C1.29221 10.6338 1.06057 10.5379 0.889783 10.3671C0.718995 10.1963 0.623047 9.96464 0.623047 9.72311V7.90172Z" fill="white"/>
<path id="Vector_2" opacity="0.3" d="M0.623047 14.2764C0.623047 14.0348 0.718995 13.8032 0.889783 13.6324C1.06057 13.4616 1.29221 13.3657 1.53374 13.3657H17.9262C18.1678 13.3657 18.3994 13.4616 18.5702 13.6324C18.741 13.8032 18.8369 14.0348 18.8369 14.2764V16.0977C18.8369 16.3393 18.741 16.5709 18.5702 16.7417C18.3994 16.9125 18.1678 17.0084 17.9262 17.0084H1.53374C1.29221 17.0084 1.06057 16.9125 0.889783 16.7417C0.718995 16.5709 0.623047 16.3393 0.623047 16.0977V14.2764Z" fill="white"/>
<path id="Vector_3" d="M0.623047 1.52675C0.623047 1.28522 0.718995 1.05358 0.889783 0.882795C1.06057 0.712006 1.29221 0.616058 1.53374 0.616058H17.9262C18.1678 0.616058 18.3994 0.712006 18.5702 0.882795C18.741 1.05358 18.8369 1.28522 18.8369 1.52675V3.34814C18.8369 3.58967 18.741 3.82131 18.5702 3.9921C18.3994 4.16289 18.1678 4.25884 17.9262 4.25884H1.53374C1.29221 4.25884 1.06057 4.16289 0.889783 3.9921C0.718995 3.82131 0.623047 3.58967 0.623047 3.34814V1.52675Z" fill="white"/>
</g>
</svg>
